<?xml version="1.0" encoding="utf-8"?>
<!-- Generator: Adobe Illustrator 22.1.0, SVG Export Plug-In . SVG Version: 6.00 Build 0)  -->
<svg version="1.1" id="Layer_1" xmlns="http://www.w3.org/2000/svg" xmlns:xlink="http://www.w3.org/1999/xlink" x="0px" y="0px"
	 viewBox="0 0 512 512" style="enable-background:new 0 0 512 512;" xml:space="preserve">
<style type="text/css">
	.st0{fill:#6770E6;}
	.st1{fill:#5861C7;}
	.st2{fill:#FFEFE4;}
	.st3{fill:#D476E2;}
	.st4{fill:#EA82FA;}
	.st5{fill:#B665C2;}
	.st6{fill:#69EBFC;}
	.st7{fill:#FF8354;}
	.st8{fill:#333399;}
	.st9{fill:#E0734A;}
	.st10{fill:#FFAC8C;}
	.st11{fill:#382F8B;}
	.st12{fill:#C7FCFE;}
	.st13{fill:#EDD4C2;}
	.st14{fill:#8F95E6;}
	.st15{fill:#A1F1FC;}
	.st16{fill:#FFF7F2;}
	.st17{opacity:0.8;fill:#A1F1FC;}
	.st18{fill:#4C54AD;}
	.st19{fill:#5FD4E3;}
	.st20{fill:#FFE4D1;}
	.st21{fill:#5ED4E3;}
	.st22{fill:#56C1CF;}
	.st23{fill:#9FA5FF;}
	.st24{fill:#C46541;}
	.st25{fill:#FFCAB5;}
	.st26{fill:#5A62C9;}
	.st27{fill:#BABEFF;}
</style>
<g>
	<path id="XMLID_82_" class="st7" d="M410.533,512H36.882c-4.51,0-8.167-3.656-8.167-8.167V8.167c0-4.51,3.656-8.167,8.167-8.167
		h373.651c4.51,0,8.167,3.656,8.167,8.167v495.666C418.7,508.344,415.043,512,410.533,512z"/>
	<path class="st9" d="M410.533,492H36.882c-4.51,0-8.167-3.656-8.167-8.167v20c0,4.51,3.656,8.167,8.167,8.167h373.651
		c4.51,0,8.167-3.656,8.167-8.167v-20C418.7,488.344,415.043,492,410.533,492z"/>
	<path class="st10" d="M36.882,20h373.651c4.51,0,8.167,3.656,8.167,8.167v-20c0-4.51-3.656-8.167-8.167-8.167H36.882
		c-4.51,0-8.167,3.656-8.167,8.167v20C28.715,23.656,32.371,20,36.882,20z"/>
	<path class="st9" d="M36.882,512h47.145V0H36.882c-4.51,0-8.167,3.656-8.167,8.167v495.667C28.715,508.344,32.371,512,36.882,512z"
		/>
	<path class="st7" d="M36.882,20h47.145V0H36.882c-4.51,0-8.167,3.656-8.167,8.167v20C28.715,23.656,32.371,20,36.882,20z"/>
	<circle id="XMLID_81_" class="st11" cx="52.377" cy="324.57" r="11.363"/>
	<circle id="XMLID_80_" class="st11" cx="52.377" cy="256" r="11.363"/>
	<circle id="XMLID_79_" class="st11" cx="52.377" cy="187.43" r="11.363"/>
	<circle id="XMLID_78_" class="st11" cx="52.377" cy="118.86" r="11.363"/>
	<circle id="XMLID_77_" class="st11" cx="52.377" cy="50.29" r="11.363"/>
	<path id="XMLID_76_" class="st0" d="M55.532,324.57L55.532,324.57c0,3.763-3.051,6.814-6.814,6.814H6.814
		c-3.763,0-6.814-3.051-6.814-6.814v0c0-3.763,3.051-6.814,6.814-6.814h41.904C52.482,317.756,55.532,320.807,55.532,324.57z"/>
	<path id="XMLID_75_" class="st0" d="M55.532,256L55.532,256c0,3.763-3.051,6.814-6.814,6.814H6.814C3.051,262.814,0,259.763,0,256
		l0,0c0-3.763,3.051-6.814,6.814-6.814h41.904C52.482,249.186,55.532,252.237,55.532,256z"/>
	<path id="XMLID_74_" class="st0" d="M55.532,187.43L55.532,187.43c0,3.763-3.051,6.814-6.814,6.814H6.814
		c-3.763,0-6.814-3.051-6.814-6.814v0c0-3.763,3.051-6.814,6.814-6.814h41.904C52.482,180.616,55.532,183.667,55.532,187.43z"/>
	<path id="XMLID_73_" class="st0" d="M55.532,118.86L55.532,118.86c0,3.763-3.051,6.814-6.814,6.814H6.814
		c-3.763,0-6.814-3.051-6.814-6.814v0c0-3.763,3.051-6.814,6.814-6.814h41.904C52.482,112.046,55.532,115.096,55.532,118.86z"/>
	<path id="XMLID_72_" class="st0" d="M55.532,50.289L55.532,50.289c0,3.763-3.051,6.814-6.814,6.814H6.814
		C3.051,57.104,0,54.053,0,50.29v0c0-3.763,3.051-6.814,6.814-6.814h41.904C52.482,43.475,55.532,46.526,55.532,50.289z"/>
	<circle id="XMLID_71_" class="st11" cx="52.377" cy="461.711" r="11.363"/>
	<circle id="XMLID_70_" class="st11" cx="52.377" cy="393.14" r="11.363"/>
	<path id="XMLID_69_" class="st0" d="M55.532,461.711L55.532,461.711c0,3.763-3.051,6.814-6.814,6.814H6.814
		c-3.763,0-6.814-3.051-6.814-6.814l0,0c0-3.763,3.051-6.814,6.814-6.814h41.904C52.482,454.896,55.532,457.947,55.532,461.711z"/>
	<path id="XMLID_68_" class="st0" d="M55.532,393.14L55.532,393.14c0,3.763-3.051,6.814-6.814,6.814H6.814
		c-3.763,0-6.814-3.051-6.814-6.814v0c0-3.763,3.051-6.814,6.814-6.814h41.904C52.482,386.326,55.532,389.377,55.532,393.14z"/>
	
		<rect id="XMLID_67_" x="328.422" y="176.395" transform="matrix(-1 -2.230761e-11 2.230761e-11 -1 705.6877 626.8839)" class="st6" width="48.844" height="274.094"/>
	
		<rect id="XMLID_66_" x="328.422" y="450.489" transform="matrix(-1 -2.251234e-11 2.251234e-11 -1 705.6877 913.5623)" class="st12" width="48.844" height="12.585"/>
	<path id="XMLID_65_" class="st0" d="M328.422,463.074h48.844v24.505c0,13.488-10.934,24.422-24.422,24.422h0
		c-13.488,0-24.422-10.934-24.422-24.422V463.074z"/>
	<path class="st1" d="M352.844,492L352.844,492c-13.488,0-24.422-10.934-24.422-24.422v20c0,13.488,10.934,24.422,24.422,24.422h0
		c13.488,0,24.422-10.934,24.422-24.422v-20C377.266,481.066,366.332,492,352.844,492z"/>
	<path id="XMLID_64_" class="st13" d="M328.422,176.376l22.617-63.105c0.607-1.694,3.003-1.694,3.61,0l22.617,63.105H328.422z"/>
	<path class="st0" d="M354.649,113.271c-0.152-0.423-0.415-0.741-0.735-0.953c-0.639-0.424-1.502-0.424-2.141,0
		c-0.319,0.212-0.583,0.529-0.735,0.953l-10.406,29.034h2.352h19.717h2.353L354.649,113.271z"/>
	<path class="st0" d="M440,112v400h72V112H440z M476,496c-6.627,0-12-5.373-12-12s5.373-12,12-12s12,5.373,12,12
		S482.628,496,476,496z"/>
	<path class="st14" d="M440,112v20h72v-20H440z M476,131.2c-6.627,0-12-0.269-12-0.6c0-0.331,5.373-0.6,12-0.6s12,0.269,12,0.6
		C488,130.931,482.628,131.2,476,131.2z"/>
	<path class="st1" d="M476,496c-3.54,0-6.689-1.562-8.886-4H440v20h72v-20h-27.114C482.689,494.438,479.54,496,476,496z M476,511.2
		c-6.627,0-12-0.269-12-0.6c0-0.332,5.373-0.6,12-0.6s12,0.269,12,0.6C488,510.931,482.628,511.2,476,511.2z"/>
	<path id="XMLID_62_" class="st15" d="M440.034,431.281h18.703c3.443,0,6.234,2.791,6.234,6.234l0,0
		c0,3.443-2.791,6.234-6.234,6.234h-18.703V431.281z"/>
	<path id="XMLID_60_" class="st15" d="M440.034,383.442h18.703c3.443,0,6.234,2.791,6.234,6.234l0,0
		c0,3.443-2.791,6.234-6.234,6.234h-18.703V383.442z"/>
	<path id="XMLID_59_" class="st15" d="M440.034,335.603h18.703c3.443,0,6.234,2.791,6.234,6.234l0,0
		c0,3.443-2.791,6.234-6.234,6.234h-18.703V335.603z"/>
	<path id="XMLID_58_" class="st15" d="M440.034,287.763h18.703c3.443,0,6.234,2.791,6.234,6.234l0,0
		c0,3.443-2.791,6.234-6.234,6.234h-18.703V287.763z"/>
	<path id="XMLID_57_" class="st15" d="M440.034,239.924h18.703c3.443,0,6.234,2.791,6.234,6.234v0c0,3.443-2.791,6.234-6.234,6.234
		h-18.703V239.924z"/>
	<path id="XMLID_56_" class="st15" d="M440.034,192.085h18.703c3.443,0,6.234,2.791,6.234,6.234v0c0,3.443-2.791,6.234-6.234,6.234
		h-18.703V192.085z"/>
	<path id="XMLID_55_" class="st15" d="M440.034,144.246h18.703c3.443,0,6.234,2.791,6.234,6.234v0c0,3.443-2.791,6.234-6.234,6.234
		h-18.703V144.246z"/>
	<path class="st3" d="M268,512h-56c-11.046,0-20-8.954-20-20V380c0-11.046,8.954-20,20-20h56c11.046,0,20,8.954,20,20v112
		C288,503.046,279.046,512,268,512z"/>
	<path class="st2" d="M288,408h-96v-28c0-11.046,8.954-20,20-20h56c11.046,0,20,8.954,20,20V408z"/>
	<path class="st13" d="M288,492h-96v0c0,11.046,8.954,20,20,20h56C279.046,512,288,503.046,288,492L288,492z"/>
</g>
</svg>
