<?xml version="1.0" encoding="iso-8859-1"?>
<!-- Generator: Adobe Illustrator 19.0.0, SVG Export Plug-In . SVG Version: 6.00 Build 0)  -->
<svg xmlns="http://www.w3.org/2000/svg" xmlns:xlink="http://www.w3.org/1999/xlink" version="1.1" id="Layer_1" x="0px" y="0px" viewBox="0 0 512 512" style="enable-background:new 0 0 512 512;" xml:space="preserve">
<path style="fill:#544032;" d="M134.626,152.67v-23.813C134.626,61.931,189.075,7.483,256,7.483  c66.926,0,121.374,54.448,121.374,121.373v23.813L134.626,152.67L134.626,152.67z"/>
<path style="opacity:0.1;enable-background:new    ;" d="M275.956,9.134c-6.495-1.08-13.16-1.65-19.956-1.65  c-66.925,0-121.374,54.448-121.374,121.374v23.813h39.912v-23.813C174.538,68.727,218.492,18.68,275.956,9.134z"/>
<g>
	<path style="fill:#544032;" d="M134.626,152.67c0,13.231-3.426,25.682-7.807,36.193c-7.769,18.641,0.464,40.087,18.735,48.689   l29.99,14.12l27.152-45.414L134.626,152.67z"/>
	<path style="fill:#544032;" d="M377.373,152.67c0,13.231,3.426,25.682,7.807,36.193c7.769,18.641-0.464,40.087-18.735,48.689   l-29.99,14.12l-27.152-45.414L377.373,152.67z"/>
</g>
<g>
	<path style="fill:#F2A36D;" d="M167.039,194.706c-5.253-1.501-15.211-3.428-19.983-6.111   c-14.849-8.352-20.687-23.529-17.714-40.051c2.917-16.206,15.313-27.42,31.74-19.574l14.461,31.587L167.039,194.706z"/>
	<path style="fill:#F2A36D;" d="M344.959,194.706c5.253-1.501,15.211-3.428,19.983-6.111c14.849-8.352,20.687-23.529,17.714-40.051   c-2.917-16.206-15.313-27.42-31.74-19.574l-14.461,31.587L344.959,194.706z"/>
</g>
<path style="fill:#EE534F;" d="M120.546,316.179c0-68.755,49.921-95.271,49.921-95.271h171.066c0,0,49.921,26.516,49.921,95.271  l-134.93,35.756L120.546,316.179z"/>
<path style="opacity:0.1;enable-background:new    ;" d="M160.458,316.179c0-68.755,49.921-95.271,49.921-95.271h-39.912  c0,0-49.921,26.516-49.921,95.271l135.978,35.756l19.879-5.268L160.458,316.179z"/>
<path style="fill:#FFB480;" d="M347.19,104.322C250.547,96.472,227.344,64.07,227.344,64.07  c-14.159,30.044-45.274,38.583-62.743,41.001c-0.967,3.46-1.764,6.993-2.337,10.601c-0.774,4.882-1.181,9.886-1.181,14.986v38.575  c0,5.1,0.407,10.104,1.181,14.986c7.185,45.3,46.413,79.931,93.735,79.931l0,0c47.321,0,86.55-34.631,93.735-79.931  c0.774-4.882,1.181-9.886,1.181-14.986v-38.575c0-5.1-0.407-10.104-1.181-14.986C349.121,111.804,348.257,108.02,347.19,104.322z"/>
<path style="fill:#333333;" d="M291.672,184.344c0,19.701-15.971,35.672-35.672,35.672s-35.672-15.971-35.672-35.672  L291.672,184.344L291.672,184.344z"/>
<polygon style="fill:#CCCCCC;" points="94.136,316.179 122.607,471.657 256.524,488.087 389.393,471.657 417.864,316.179 "/>
<polygon style="opacity:0.1;enable-background:new    ;" points="162.518,471.657 134.047,316.179 94.136,316.179 122.607,471.657   256.524,488.087 276.402,485.629 "/>
<circle style="fill:#FFFFFF;" cx="256.004" cy="390.008" r="19.227"/>
<path style="fill:#B3B3B3;" d="M390.441,471.657H122.607c-9.074,0-16.43,7.356-16.43,16.43l0,0c0,9.074,7.356,16.43,16.43,16.43  H390.44c9.074,0,16.43-7.356,16.43-16.43l0,0C406.87,479.013,399.514,471.657,390.441,471.657z"/>
<path style="opacity:0.1;enable-background:new    ;" d="M146.089,488.087L146.089,488.087c0-9.074,7.356-16.43,16.43-16.43h-39.912  c-9.074,0-16.43,7.356-16.43,16.43l0,0c0,9.074,7.356,16.43,16.43,16.43h39.912C153.445,504.517,146.089,497.161,146.089,488.087z"/>
<path d="M234.538,128.508c3.753,1.731,8.199,0.093,9.93-3.66c1.73-3.753,0.093-8.199-3.661-9.93  c-5.761-2.658-14.589-4.183-24.217-4.183c-9.635,0-18.466,1.526-24.226,4.187c-3.753,1.732-5.389,6.179-3.656,9.931  c1.264,2.736,3.97,4.347,6.798,4.347c1.051,0,2.117-0.223,3.133-0.691c2.939-1.357,9.199-2.807,17.951-2.807  C225.337,125.702,231.597,127.152,234.538,128.508z"/>
<circle cx="216.581" cy="152.672" r="10.758"/>
<path d="M255.999,220.017c19.701,0,35.672-15.971,35.672-35.672h-71.344C220.327,204.046,236.298,220.017,255.999,220.017z"/>
<path d="M319.636,114.922c-5.76-2.661-14.592-4.187-24.226-4.187c-9.63,0-18.457,1.525-24.218,4.183  c-3.753,1.731-5.391,6.177-3.659,9.93c1.731,3.753,6.177,5.391,9.93,3.659c2.94-1.356,9.199-2.806,17.947-2.806  c8.753,0,15.013,1.45,17.951,2.807c1.017,0.47,2.082,0.691,3.133,0.691c2.828,0,5.535-1.611,6.798-4.347  C325.025,121.101,323.389,116.655,319.636,114.922z"/>
<circle cx="295.417" cy="152.672" r="10.758"/>
<path d="M229.288,390.006c0,14.728,11.982,26.712,26.712,26.712c14.729,0,26.712-11.984,26.712-26.712  c0-14.729-11.983-26.712-26.712-26.712C241.27,363.294,229.288,375.276,229.288,390.006z M267.744,390.006  c0,6.476-5.268,11.745-11.745,11.745s-11.745-5.268-11.745-11.745c0-6.477,5.268-11.745,11.745-11.745  S267.744,383.529,267.744,390.006z"/>
<path d="M88.387,311.388c-1.423,1.706-2.014,3.955-1.612,6.139l27.154,148.284c-8.906,3.482-15.235,12.151-15.235,22.276  c0,13.186,10.727,23.913,23.913,23.913h49.943c4.134,0,7.483-3.351,7.483-7.483c0-4.133-3.35-7.483-7.483-7.483h-49.943  c-4.932,0-8.946-4.013-8.946-8.946c0-4.933,4.013-8.946,8.946-8.946h266.785h1.05c4.932,0,8.945,4.013,8.945,8.946  c0,4.933-4.012,8.946-8.945,8.946H202.476c-4.134,0-7.483,3.351-7.483,7.483c0,4.133,3.35,7.483,7.483,7.483h187.965  c13.185,0,23.912-10.727,23.912-23.913c0-10.494-6.797-19.424-16.217-22.636l27.089-147.924c0.4-2.184-0.19-4.433-1.612-6.139  c-1.422-1.705-3.527-2.692-5.748-2.692h-19.122c-1.537-30.295-12.256-52.28-23.73-67.373c18.092-11.715,25.602-34.874,17.074-55.338  c-1.733-4.158-3.155-8.34-4.279-12.472c3.096-7.834,3.922-16.794,2.213-26.294c-0.952-5.29-2.734-10.037-5.166-14.064v-4.298  c0-35.431-14.136-68.477-39.805-93.051c-2.984-2.858-7.722-2.756-10.581,0.23c-2.859,2.985-2.756,7.722,0.23,10.581  c20.602,19.725,32.801,45.62,34.872,73.655c-0.989-0.332-1.998-0.599-3.022-0.806c-2.9-0.589-5.863-0.683-8.797-0.305  c-0.011-0.095-0.027-0.188-0.038-0.282c-0.647-5.628-1.767-11.184-3.336-16.627c-0.647-2.243-2.283-4.009-4.369-4.859  c-2.848-1.159-6.371-0.876-9.398-1.173c-13.59-1.334-27.135-3.32-40.48-6.234c-0.797-0.176-1.593-0.353-2.389-0.535  c-48.76-11.177-63.579-28.826-64.346-29.78c-1.292-1.88-3.424-3.046-5.696-3.158c-3.02-0.148-5.848,1.656-7.127,4.369  c-5.318,11.285-13.423,19.18-22.209,24.715c-12.147,7.654-25.595,10.79-34.792,12.064c-2.951,0.409-5.379,2.53-6.18,5.4  c-1.448,5.186-2.496,10.468-3.111,15.817c-0.011,0.095-0.028,0.189-0.038,0.283c-2.93-0.378-5.905-0.299-8.799,0.305  c-1.022,0.208-2.029,0.474-3.014,0.804c4.404-58.801,53.658-105.302,113.567-105.302c19.586,0,38.92,5.084,55.911,14.701  c3.596,2.036,8.164,0.771,10.199-2.827c2.036-3.596,0.769-8.163-2.827-10.198C300.047,5.755,278.164,0,255.999,0  c-71.052,0-128.857,57.804-128.857,128.856v4.298c-2.432,4.027-4.214,8.774-5.166,14.063c-1.71,9.5-0.883,18.46,2.213,26.294  c-1.124,4.133-2.546,8.316-4.279,12.472c-8.543,20.499-0.992,43.698,17.164,55.396c-3.588,4.729-7.108,10.121-10.303,16.242  c-1.912,3.664-0.492,8.185,3.173,10.097c3.662,1.911,8.184,0.493,10.097-3.172c11.292-21.639,27.441-32.99,32.419-36.123  c-0.034,0.021,4.744,6.17,5.197,6.711c2.601,3.099,5.386,6.045,8.333,8.818c15.457,14.523,35.057,23.9,56.254,26.75  c0.047,0.006,0.094,0.013,0.141,0.019c9.026,1.219,18.202,1.195,27.229,0c0.047-0.006,0.095-0.013,0.142-0.02  c21.193-2.85,40.792-12.225,56.249-26.746c0.142-0.133,0.28-0.267,0.421-0.4c4.671-4.42,8.886-9.278,12.645-14.493  c0.155-0.215,0.315-0.424,0.468-0.641c0.327-0.456,10.327,7.842,11.316,8.716c0.015,0.013,0.03,0.028,0.045,0.042  c12.758,11.639,30.698,34.397,32.855,71.514h-47.046c-4.134,0-7.483,3.351-7.483,7.483c0,4.133,3.35,7.483,7.483,7.483h72.177  l-25.73,140.513H128.844l-25.73-140.511h203.661c4.134,0,7.483-3.351,7.483-7.483c0-4.133-3.35-7.483-7.483-7.483H128.245  c0.323-5.553,1.009-10.983,2.049-16.218c0.805-4.054-1.828-7.993-5.882-8.798c-4.062-0.807-7.994,1.828-8.799,5.882  c-1.228,6.182-2.011,12.593-2.352,19.135H94.136C91.914,308.695,89.809,309.682,88.387,311.388z M327.742,219.081  c-13.829,20.036-35.952,33.551-60.064,36.803c-22.94,3.094-47.123-3.342-65.592-17.82c-0.069-0.055-0.139-0.11-0.208-0.165  c-17.094-13.482-28.809-33.345-32.222-54.854c-2.667-16.807-1.09-35.215-1.09-52.388c0-5.868,0.587-11.742,1.772-17.489  c0.103-0.496,0.199-0.989,0.311-1.49c3.083-0.562,6.432-1.303,9.935-2.266c0.329-0.091,0.658-0.182,0.985-0.275  c16.009-4.56,35.071-13.882,47.552-32.939c4.134,3.349,10.126,7.465,18.517,11.726c19.751,10.032,45.126,17.171,75.601,21.328  c0.046,0.006,0.092,0.012,0.138,0.019c5.445,0.753,10.92,1.203,16.369,1.896c0.512,0.049,1.012,0.106,1.527,0.154  c0.425,1.858,0.782,3.705,1.072,5.526c0.724,4.559,1.09,9.195,1.09,13.812v38.575C343.432,187.033,337.845,204.444,327.742,219.081z   M153.202,183.358c-5.832-2.839-11.054-7.232-14.016-13.084c-2.947-5.797-3.854-12.755-2.478-20.405  c0.645-3.581,2.035-7.448,4.229-10.484c2.316-3.205,5.699-5.493,9.755-5.493c0.935,0,1.905,0.11,2.906,0.329c0,0,0,35.013,0,35.016  c0,4.948,0.361,9.919,1.072,14.816c-0.034-0.015-0.07-0.03-0.104-0.045C154.099,183.796,153.651,183.577,153.202,183.358z   M367.927,136.122c4.238,3.158,6.455,8.703,7.363,13.747c1.377,7.649,0.47,14.607-2.478,20.404  c-3.212,6.319-8.965,10.831-15.375,13.732c-0.036,0.016-0.074,0.031-0.11,0.047c0.71-4.903,1.071-9.864,1.071-14.819v-35.013  c1.001-0.22,1.972-0.329,2.906-0.329C363.864,133.891,366.058,134.729,367.927,136.122z M365.028,229.876  c-7.552-7.559-14.325-12.171-17.732-14.267c0.021-0.041,0.039-0.083,0.06-0.123c2.151-4.246,4.009-8.651,5.551-13.154  c0.097-0.282,0.204-0.561,0.298-0.844c0.174-0.052,0.338-0.107,0.511-0.16c8.491-2.601,16.825-6.313,23.437-12.371  c0.36,0.93,0.733,1.858,1.12,2.785C384.261,206.111,378.443,222.466,365.028,229.876z M133.726,191.742  c0.386-0.927,0.759-1.855,1.12-2.785c-0.171,0.44,4.147,3.361,4.628,3.695c5.046,3.516,10.734,6.012,16.549,7.952  c0.908,0.304,1.844,0.604,2.77,0.883c1.594,4.796,3.565,9.476,5.844,13.988c0.024,0.047,0.045,0.095,0.069,0.141  c-3.373,2.089-10.119,6.713-17.666,14.3C133.574,222.525,127.727,206.136,133.726,191.742z"/>
<g>
</g>
<g>
</g>
<g>
</g>
<g>
</g>
<g>
</g>
<g>
</g>
<g>
</g>
<g>
</g>
<g>
</g>
<g>
</g>
<g>
</g>
<g>
</g>
<g>
</g>
<g>
</g>
<g>
</g>
</svg>
